<svg width="230" height="47" viewBox="0 0 230 47" fill="none" xmlns="http://www.w3.org/2000/svg">
<path d="M46.2721 23.5C46.2721 29.8886 41.0931 35.0676 34.7045 35.0676C28.3159 35.0676 23.1369 40.2466 23.1369 46.6352C23.1369 40.2466 17.9579 35.0676 11.5693 35.0676C5.1807 35.0676 0.00167847 29.8886 0.00167847 23.5C0.00167847 20.3048 1.29643 17.4134 3.38953 15.3203C5.48263 13.2272 8.37592 11.9324 11.5693 11.9324C11.5693 5.54383 16.7483 0.364807 23.1369 0.364807C29.5255 0.364807 34.7045 5.54383 34.7045 11.9324C41.0931 11.9324 46.2721 17.1114 46.2721 23.5Z" fill="url(#paint0_linear_9904_68147)"/>
<path d="M90.431 6.74183C90.286 6.59534 90.0545 6.53089 89.6839 6.53089H62.8208V7.30435L62.8999 7.32779C63.5093 7.50211 63.9927 7.72184 64.3384 7.97966C64.6695 8.22723 64.9258 8.73261 65.1016 9.4797C65.2657 10.1755 65.3638 11.2332 65.4122 12.8079C65.4561 14.2801 65.4561 16.29 65.4561 18.8345V27.9461C65.4561 29.9881 65.4268 31.9452 65.3668 33.9272C65.3184 35.502 65.2203 36.5596 65.0562 37.2554C64.8804 38.004 64.6241 38.5079 64.293 38.7555C63.9839 38.9869 63.562 39.1876 63.0391 39.3517V39.2023L62.8267 39.4147H62.8193V39.422L62.5073 39.734L62.8193 39.6447V40.1574H74.786V39.3839L74.7069 39.3605C74.0975 39.1862 73.6141 38.9664 73.2684 38.7086C72.9388 38.461 72.681 37.9557 72.5052 37.2086C72.3147 36.3999 72.1917 35.2485 72.1507 33.8803C72.0891 31.8734 72.0613 29.9867 72.0613 27.9431V21.9796H75.2562C76.7636 21.9796 77.8183 22.0777 78.5771 22.2887C79.3359 22.4996 79.9527 22.7926 80.4141 23.1618C80.8345 23.4987 81.1392 23.9176 81.3179 24.4084C81.4703 24.8273 81.6636 25.3869 81.8057 26.0036L81.8248 26.0886H82.692V16.8466H81.8248L81.8057 16.9316C81.6929 17.4238 81.5377 17.9599 81.3179 18.6191C81.1465 19.1318 80.8433 19.5655 80.4156 19.9082C79.9541 20.2774 79.3359 20.5718 78.5786 20.7813C77.8213 20.9923 76.7651 21.0904 75.2577 21.0904H72.0628V7.50943H79.188C81.3604 7.50943 83.1139 7.59879 84.3986 7.77604C85.6423 7.94743 86.6648 8.28729 87.4353 8.78681C88.1751 9.26583 88.7962 9.93236 89.2298 10.7131C89.6707 11.5086 90.1541 12.5164 90.7445 13.7879L90.7738 13.8509H91.685L90.8177 7.9196C90.7577 7.49918 90.6419 6.95277 90.4295 6.74036L90.431 6.74183Z" fill="#161616"/>
<path d="M119.552 31.9653C118.854 33.5928 118.242 34.8452 117.682 35.793C117.123 36.7408 116.427 37.4952 115.617 38.0358C114.83 38.5602 113.853 38.9147 112.713 39.0905C111.563 39.2677 110.052 39.3571 108.219 39.3571H103.246V18.878C103.246 16.3335 103.246 14.3236 103.29 12.8514C103.331 11.4832 103.454 10.3333 103.644 9.52319C103.82 8.77463 104.076 8.27071 104.407 8.02315C104.743 7.77119 105.257 7.55145 105.932 7.37127L106.014 7.3493V6.57437H93.8691V7.34784L93.9482 7.37127C94.5576 7.54559 95.041 7.76386 95.3867 8.02315C95.7163 8.27071 95.9741 8.7761 96.1499 9.52319C96.314 10.219 96.4121 11.2752 96.459 12.8514C96.503 14.3236 96.503 16.3335 96.503 18.878V27.9896C96.503 30.0316 96.4736 31.9887 96.4136 33.9707C96.3652 35.5455 96.2671 36.6031 96.103 37.2989C95.9272 38.0475 95.6709 38.5514 95.3398 38.799C95.0674 39.0041 94.7055 39.1842 94.2646 39.3366V39.3044L93.8911 39.4538L93.9614 39.6618C93.9892 39.6545 94.017 39.6457 94.0449 39.6369V40.1569H118.443C118.614 40.1569 118.772 40.0969 118.878 39.9914C118.963 39.9064 119.074 39.7599 119.13 39.5387C119.171 39.3732 119.215 39.1271 119.264 38.7726L120.539 31.8994H119.575L119.546 31.9653H119.552Z" fill="#161616"/>
<path d="M150.634 10.9825C149.019 9.45466 147.084 8.21537 144.884 7.29835C142.707 6.39158 140.53 5.95065 138.232 5.95065C135.933 5.95065 133.682 6.40477 131.534 7.29835C129.39 8.19193 127.455 9.44588 125.785 11.0265C124.103 12.6174 122.758 14.4763 121.785 16.5535C120.801 18.6571 120.302 20.957 120.302 23.3887C120.302 25.8204 120.801 28.2096 121.785 30.3571C122.77 32.5047 124.116 34.3958 125.785 35.9735C127.48 37.5761 129.399 38.8301 131.49 39.7017C133.667 40.6084 135.844 41.0494 138.142 41.0494H138.188L138.323 40.9146C140.605 40.9087 142.766 40.4678 144.929 39.5669C147.021 38.6953 148.94 37.4413 150.635 35.8388C152.325 34.2391 153.648 32.4168 154.678 30.2678C155.706 28.1203 156.207 25.8555 156.207 23.3418C156.207 20.828 155.693 18.5794 154.678 16.5052C153.65 14.4045 152.29 12.5456 150.635 10.9796L150.634 10.9825ZM147.906 31.176C147.34 33.2649 146.549 35.0111 145.556 36.3646C144.597 37.6728 143.454 38.6528 142.158 39.2783C140.937 39.8672 139.632 40.1792 138.276 40.2041L138.32 40.1162H138.142C136.721 40.1162 135.356 39.8042 134.082 39.1889C132.785 38.5634 131.643 37.5834 130.683 36.2753C129.69 34.9203 128.899 33.1741 128.334 31.0867C127.743 28.9084 127.444 26.3023 127.444 23.3447C127.444 20.3871 127.758 17.7283 128.377 15.6497C129.007 13.5373 129.804 11.8688 130.815 10.5489C131.81 9.25251 132.967 8.3018 134.256 7.72463C135.498 7.16797 136.79 6.88525 138.097 6.88525C139.404 6.88525 140.63 7.18262 141.938 7.76858C143.227 8.34721 144.386 9.29646 145.379 10.5929C146.41 11.9376 147.245 13.6691 147.862 15.7376C148.482 17.8177 148.795 20.4062 148.795 23.4326C148.795 26.4591 148.496 28.9963 147.906 31.1746V31.176Z" fill="#161616"/>
<path d="M229.248 39.1377C228.429 38.9223 227.729 38.3965 227.167 37.5746C226.578 36.7133 225.948 35.5297 225.346 34.1541L213.599 7.40089C213.432 7.02588 213.25 6.72851 213.085 6.56444C212.94 6.41795 212.708 6.3535 212.338 6.3535H204.903V7.13135L204.988 7.1504C205.554 7.28077 206.084 7.50197 206.561 7.80667C207.017 8.09671 207.456 8.73833 207.903 9.76522L208.154 10.3922L198.168 33.306C197.643 34.4984 197.207 35.4022 196.833 36.0658C196.484 36.684 196.111 37.3168 195.73 37.7446C195.411 38.1049 195.061 38.4228 194.721 38.666C194.511 38.8154 194.267 38.9531 194.003 39.0718C193.177 39.4204 192.835 39.3911 192.271 39.3413L192.125 39.3296C191.198 39.2534 189.771 38.5605 188.955 37.4267C188.138 36.2914 187.347 34.409 186.604 31.8323C186.148 30.3278 185.603 29.071 184.984 28.0983C184.371 27.1359 183.658 26.3155 182.861 25.6607C182.096 25.0308 181.229 24.5284 180.284 24.1695C179.593 23.9058 178.891 23.6963 178.16 23.5322C179.17 23.4443 180.16 23.3022 181.146 23.1001C182.933 22.7339 184.448 22.1889 185.778 21.436C187.125 20.6728 188.22 19.7147 189.028 18.5912C189.843 17.4603 190.254 16.1023 190.254 14.5525C190.254 13.2443 189.972 12.131 189.39 11.1466C188.8 10.1476 187.894 9.33015 186.623 8.64898C185.392 7.98978 183.804 7.49025 181.767 7.11963C179.804 6.7622 177.378 6.58202 174.557 6.58202H160.423V7.35548L160.502 7.37892C161.112 7.55324 161.595 7.77297 161.941 8.03079C162.271 8.27836 162.528 8.78375 162.704 9.53084C162.868 10.2267 162.966 11.2843 163.015 12.8591C163.059 14.3313 163.059 16.3411 163.059 18.8856V27.9972C163.059 30.0422 163.029 31.9993 162.969 33.9783C162.921 35.5531 162.823 36.6108 162.66 37.3066C162.484 38.0551 162.228 38.5591 161.897 38.8066C161.623 39.0117 161.263 39.1919 160.822 39.3442V39.312L160.448 39.4614L160.52 39.6694C160.548 39.6621 160.576 39.6533 160.604 39.6445V40.1646H172.57V39.3911L172.491 39.3677C171.882 39.1934 171.398 38.9736 171.053 38.7158C170.723 38.4682 170.465 37.9628 170.289 37.2157C170.099 36.4071 169.976 35.2557 169.935 33.8875C169.873 31.8777 169.846 29.9909 169.846 27.9503V23.6392H175.091C175.506 23.6831 175.875 23.7505 176.197 23.8428C176.782 24.0098 177.305 24.3452 177.754 24.8389C178.201 25.3297 178.544 25.9874 178.802 26.8517C179.101 27.8463 179.354 28.9684 179.558 30.1872C179.918 32.3977 180.463 34.1981 181.176 35.5355C181.885 36.8642 182.737 37.913 183.708 38.6528C184.682 39.394 185.688 39.8818 186.699 40.1016C187.834 40.3491 188.952 40.4239 189.799 40.4619C190.325 40.4854 190.73 40.4956 191.082 40.4956C191.482 40.4956 191.81 40.4824 192.165 40.4619C192.758 40.4268 193.089 40.3653 193.44 40.3008C193.682 40.2554 193.934 40.21 194.294 40.166H201.103V39.3926L201.024 39.3691C200.286 39.1523 199.716 38.8462 199.329 38.4594C198.919 38.0493 198.68 37.6157 198.601 37.1352C198.507 36.5771 198.522 36.0043 198.645 35.4344C198.777 34.8192 199 34.1497 199.309 33.4451L200.932 29.7595H216.643L218.802 34.784C219.467 36.3354 219.678 37.4194 219.428 38.0024C219.171 38.5986 218.527 38.9722 217.457 39.1435L217.365 39.1582V40.0313H229.332V39.167L229.25 39.145L229.248 39.1377ZM169.667 7.46535H174.335C177.684 7.46535 180.125 8.11722 181.588 9.40339C183.046 10.6837 183.784 12.5046 183.784 14.8147C183.784 17.4515 183.097 19.4525 181.74 20.7651C180.384 22.0776 178.313 22.7441 175.586 22.7441H169.667V7.46535ZM201.206 28.7736L208.675 11.652L216.101 28.7736H201.206Z" fill="#161616"/>
<defs>
<linearGradient id="paint0_linear_9904_68147" x1="114.667" y1="0.364807" x2="114.667" y2="46.6352" gradientUnits="userSpaceOnUse">
<stop stop-color="#FF0000"/>
<stop offset="1" stop-color="#00FFF0"/>
</linearGradient>
</defs>
</svg>
