<svg xmlns="http://www.w3.org/2000/svg" id="526aef1c-0b7f-47cf-b247-1530adda1336" viewBox="7.5 7.5 497 497" width="497.00001525878906" height="497"><path fill="#d88a55" d="M238.908 334.27h34.183v61.109h-34.183z"/><path fill="#c57a44" d="M238.908 339.418v-5.148h34.183v40.24l-34.183-35.092z"/><path fill="#46cc8d" d="m183.402 324.822 70.016-89.528a3.278 3.278 0 0 1 5.164 0l70.015 89.527a3.28 3.28 0 0 1-1.735 5.187 271.51 271.51 0 0 1-141.743-.005 3.276 3.276 0 0 1-1.717-5.181Z"/><path fill="#00c27a" d="m328.597 324.822-70.015-89.528a3.278 3.278 0 0 0-5.164 0l-7.711 9.86 51.432 65.764a7.94 7.94 0 0 1-4.377 12.612 271.216 271.216 0 0 1-110.039 3.636 3.257 3.257 0 0 0 2.396 2.837 271.511 271.511 0 0 0 141.755.001 3.276 3.276 0 0 0 1.723-5.183Z"/><path fill="#46cc8d" d="m194.335 280.926 59.47-76.045a2.784 2.784 0 0 1 4.387 0l59.47 76.045a2.786 2.786 0 0 1-1.473 4.405 230.619 230.619 0 0 1-120.396-.005 2.783 2.783 0 0 1-1.458-4.4Z"/><path fill="#00c27a" d="m317.663 280.926-59.471-76.045a2.784 2.784 0 0 0-4.386 0l-7.81 9.987 39.93 51.058a8.534 8.534 0 0 1-4.856 13.576 230.344 230.344 0 0 1-87.304 2.966 2.762 2.762 0 0 0 2.027 2.858 230.616 230.616 0 0 0 120.396.005 2.785 2.785 0 0 0 1.474-4.405Z"/><path fill="#46cc8d" d="m208.324 236.691 45.98-58.792a2.153 2.153 0 0 1 3.39 0l45.98 58.792a2.154 2.154 0 0 1-1.14 3.406 178.3 178.3 0 0 1-93.083-.003 2.151 2.151 0 0 1-1.127-3.403Z"/><path fill="#00c27a" d="M303.673 236.691 257.694 177.9a2.153 2.153 0 0 0-3.391 0l-7.81 9.988 25.312 32.366a9.121 9.121 0 0 1-5.318 14.56 178.23 178.23 0 0 1-58.326 2.153 2.14 2.14 0 0 0 1.29 3.128 178.296 178.296 0 0 0 93.101-.002 2.148 2.148 0 0 0 1.121-3.4Z"/><circle cx="255.998" cy="175.545" r="19.073" fill="#e53950"/><path fill="#ca2e43" d="M261.743 157.357a19.072 19.072 0 0 1-21.473 28.969 19.07 19.07 0 1 0 21.473-28.97Z"/><path fill="#e53950" d="M256 7.5C118.757 7.5 7.5 118.757 7.5 256S118.757 504.5 256 504.5 504.5 393.243 504.5 256 393.243 7.5 256 7.5Zm0 379.951A131.451 131.451 0 1 1 387.451 256 131.451 131.451 0 0 1 256 387.451Z"/><path fill="#ca2e43" d="M241 125.406a132.819 132.819 0 0 0-15-.857 131.451 131.451 0 0 0 0 262.902 132.819 132.819 0 0 0 15-.857 131.453 131.453 0 0 1 0-261.189zM256 7.5c-5.038 0-10.036.168-15 .464C371.256 15.72 474.5 123.795 474.5 256c0 132.205-103.244 240.279-233.5 248.036 4.964.296 9.962.464 15 .464 137.243 0 248.5-111.257 248.5-248.5S393.243 7.5 256 7.5z"/><path fill="#fff" d="M72.487 253.064a4.3 4.3 0 0 1 2.193 3.891 3.845 3.845 0 0 1-2.159 3.686l-13.019 7.185 28.877-.13c2.4-.012 3.614 2.908 3.627 5.833.014 2.925-1.174 5.856-3.574 5.867l-45.378.204c-4.276.018-5.864-2.899-5.877-5.824-.019-4.2.423-6.003 5.81-9.102l13.466-7.786-13.536-7.666c-5.414-3.05-5.872-4.848-5.892-9.048-.012-3 1.55-5.86 5.826-5.878l45.378-.204c2.4-.01 3.613 2.91 3.626 5.835.013 2.925-1.173 5.856-3.574 5.867l-28.127.126zm-7.033-43.209 2.892-10.874c.579-2.173 3.008-2.846 5.328-2.23 1.957.521 4.007 2.153 3.37 4.545L74.15 212.17l12.323 3.278 5.168-19.425c.579-2.176 3.226-2.79 5.907-2.076 2.32.617 4.587 2.306 3.951 4.698l-6.865 25.804c-.655 2.465-2.472 4.621-4.79 4.004l-46.029-12.245c-2.319-.617-2.823-3.39-2.168-5.855l6.866-25.804c.635-2.392 3.443-2.733 5.762-2.115 2.682.714 4.674 2.563 4.095 4.738l-5.168 19.426zm-7.152-41.13a3.488 3.488 0 0 1-1.374-4.847l7.425-13.633c4.914-9.022 12.182-14.37 22.918-8.523 7.375 4.016 9.76 9.671 9.029 15.249l18.93-.107a2.462 2.462 0 0 1 1.365.317c2.568 1.399 3.469 6.33 1.818 9.359a3.996 3.996 0 0 1-3.703 2.252l-22.432-.519-2.367 4.347 15.871 8.645c2.108 1.147 1.762 4.29.364 6.858-1.399 2.569-3.852 4.564-5.96 3.416zm11.456-7.082 12.25 6.673 3.55-6.521c2.01-3.688 1.714-6.752-2.896-9.263s-7.344-1.095-9.352 2.592zm16.003-38.707a3.49 3.49 0 0 1-.137-5.037l10.556-11.384c6.985-7.535 15.348-10.928 24.312-2.617 6.16 5.711 7.08 11.78 4.994 17.006l18.376 4.56a2.467 2.467 0 0 1 1.244.643c2.146 1.989 1.804 6.99-.542 9.52a3.996 3.996 0 0 1-4.144 1.27l-21.615-6.028-3.366 3.63 13.255 12.289c1.76 1.63.65 4.592-1.339 6.736-1.988 2.145-4.856 3.475-6.617 1.843zm12.85-4.041 10.229 9.484 5.048-5.444c2.855-3.08 3.325-6.123-.525-9.692-3.85-3.57-6.848-2.872-9.704.208zm50.396-15.622a1.953 1.953 0 0 0-.825-.715l-27.075-13.025a1.757 1.757 0 0 1-.577-.608c-1.52-2.322 1.326-6.603 4.025-8.369 1.568-1.027 2.544-.768 4.014-.028l19.338 10.38-1.829-21.835a3.31 3.31 0 0 1 1.633-3.668c2.7-1.765 7.76-2.657 9.28-.336a1.751 1.751 0 0 1 .325.773l1.158 29.983a1.93 1.93 0 0 0 .323 1.043l10.306 15.751c1.314 2.008-.477 4.614-2.924 6.215-2.448 1.601-5.552 2.2-6.866.19zm55.963-49.564c-4.14 1.065-5.939 4.007-4.666 8.947l4.958 19.247c1.272 4.94 4.267 6.646 8.48 5.561 5.81-1.497 5.032-6.02 4.52-8.91-.473-2.743 1.81-4.106 4.714-4.854 3.923-1.01 6-.462 7.123 3.897 2.489 9.66-3.934 17.2-14.32 19.876-9.515 2.452-18.63-.158-21.848-12.65l-4.957-19.25c-3.22-12.492 3.5-19.18 13.015-21.63 10.387-2.676 19.578.533 21.954 9.757 1.123 4.358-.431 5.843-4.28 6.834-3.05.786-5.726.622-6.545-1.954-.56-1.87-1.974-6.463-8.148-4.871zm58.362 14.338-14.924.006.007 20.324c.001 2.4-2.923 3.6-5.849 3.602-2.924 0-5.85-1.198-5.85-3.599l-.017-47.696c0-2.475 2.924-3.527 5.849-3.528s5.85 1.048 5.85 3.523l.007 18.375 14.924-.006-.007-18.373c0-2.476 2.924-3.526 5.849-3.527 2.925-.002 5.85 1.047 5.851 3.522l.017 47.698c0 2.4-2.924 3.6-5.849 3.602s-5.85-1.199-5.85-3.599zm29.555-24.902a3.492 3.492 0 0 1 4.372-2.506l15.023 3.905c9.944 2.585 16.893 8.343 13.818 20.174-2.114 8.13-7.023 11.812-12.613 12.451l4.686 18.343a2.465 2.465 0 0 1 .022 1.4c-.735 2.83-5.302 4.898-8.641 4.03a3.996 3.996 0 0 1-3.08-3.048l-4.927-21.892-4.79-1.244-4.546 17.491c-.605 2.323-3.737 2.749-6.567 2.012-2.832-.735-5.36-2.632-4.756-4.954zm9.643 9.403-3.509 13.5 7.186 1.868c4.064 1.057 6.966.028 8.287-5.052 1.32-5.081-.713-7.392-4.778-8.448zm38.682 5.64c1.04-2.247 4.136-1.97 6.79-.74 2.653 1.231 4.866 3.413 3.825 5.66l-20.058 43.28c-1.01 2.177-4.168 2.036-6.822.806s-4.803-3.549-3.794-5.727zm21.481 54.343c5.157-7.469-15.306-19.68-5.338-34.124 6.392-9.26 16.907-7.197 24.623-1.871 3.271 2.258 11.858 9.096 8.535 13.91-1.15 1.667-4.604 4.295-7.322 2.42-2.221-1.533-1.776-4.688-6.837-8.182-4.382-3.025-7.41-2.471-8.729-.557-4.26 6.174 16.117 18.507 5.38 34.062-6.135 8.89-15.94 9.23-24.89 3.052-8.087-5.58-12.15-14.217-9.339-18.292 1.45-2.097 5.432-3.907 7.777-2.287 2.902 2.002 1.6 7.848 7.342 11.81 2.838 1.96 6.753 3.022 8.798.059zm65.756 7.959c1.666 1.829.377 4.423-1.452 6.09-2.107 1.919-4.796 2.643-6.311.98l-6.97-7.653-30.109 27.424c-1.774 1.616-4.631.26-6.6-1.9-1.97-2.164-3.052-5.135-1.278-6.75l30.109-27.424-6.97-7.651c-1.514-1.664-.543-4.274 1.564-6.193 1.83-1.666 4.533-2.708 6.2-.879zm-7.67 55.098a4.297 4.297 0 0 1-3.717-2.474 3.846 3.846 0 0 1 .253-4.262l8.347-12.307-25.68 13.206c-2.135 1.098-4.54-.954-5.88-3.555-1.336-2.602-1.607-5.752.528-6.85l40.355-20.753c3.803-1.956 6.541-.075 7.88 2.527 1.92 3.736 2.344 5.542-1.053 10.747l-8.473 13.045 15.54.696c6.21.265 7.432 1.66 9.353 5.396 1.372 2.667 1.276 5.922-2.527 7.878l-40.356 20.753c-2.135 1.098-4.54-.954-5.878-3.556-1.337-2.601-1.608-5.752.527-6.85l25.014-12.863zm-3.675 25.781a3.849 3.849 0 0 1 .84-.017l47.606 4.588c2.736.288 4.656 3.342 5.342 6.723.684 3.38.105 6.942-2.304 8.271l-42.052 22.829a3.939 3.939 0 0 1-.78.311c-2.719.551-5.553-3.237-6.193-6.398-.373-1.837-.083-3.427 1.373-4.18l8.68-4.36-3.14-15.51-9.696-.638c-1.632-.128-2.517-1.479-2.89-3.316-.639-3.16.496-7.753 3.214-8.303zm20.842 23.554 18.612-9.357-20.786-1.375zm-3.677 44.626c9.069.357 8.436-23.461 25.973-22.767 11.242.446 15.125 10.433 14.754 19.8-.157 3.973-1.34 14.886-7.186 14.654-2.024-.08-6.092-1.593-5.961-4.89.106-2.699 3.01-4.01 3.254-10.156.21-5.32-1.876-7.58-4.2-7.671-7.494-.298-7.011 23.516-25.898 22.767-10.792-.427-16.325-8.528-15.895-19.395.389-9.817 5.512-17.871 10.458-17.675 2.548.1 6.206 2.497 6.093 5.346-.14 3.522-5.774 5.551-6.05 12.521-.136 3.446 1.06 7.323 4.658 7.466z"/><path fill="#fed402" d="m258.489 420.106 6.827 13.833a2.776 2.776 0 0 0 2.09 1.519l15.266 2.218a2.776 2.776 0 0 1 1.538 4.736l-11.046 10.767a2.776 2.776 0 0 0-.798 2.458l2.607 15.203a2.776 2.776 0 0 1-4.028 2.927l-13.654-7.178a2.776 2.776 0 0 0-2.584 0l-13.654 7.178a2.776 2.776 0 0 1-4.028-2.927l2.608-15.203a2.776 2.776 0 0 0-.799-2.458l-11.046-10.767a2.776 2.776 0 0 1 1.539-4.736l15.265-2.218a2.776 2.776 0 0 0 2.09-1.519l6.827-13.833a2.776 2.776 0 0 1 4.98 0zM414.58 387.23a2.754 2.754 0 0 0-.8 2.46l2.6 15.2a2.773 2.773 0 0 1-4.02 2.93l-13.66-7.18a2.805 2.805 0 0 0-1.86-.26 2.7 2.7 0 0 0-.72.26l-13.66 7.18a2.773 2.773 0 0 1-4.02-2.93l2.6-15.2a2.776 2.776 0 0 0-.79-2.46l-11.05-10.76a2.778 2.778 0 0 1 1.54-4.74l15.26-2.22a2.756 2.756 0 0 0 2.09-1.52l6.83-13.83a2.779 2.779 0 0 1 4.98 0l6.83 13.83a2.22 2.22 0 0 0 .29.46 2.715 2.715 0 0 0 1.8 1.06l15.26 2.22a2.778 2.778 0 0 1 1.54 4.74z"/><path fill="#fac600" d="M273.17 453.177a2.754 2.754 0 0 0-.8 2.46l2.599 15.2a2.773 2.773 0 0 1-4.02 2.93l-13.66-7.18a2.805 2.805 0 0 0-1.86-.26 27.18 27.18 0 0 0 10.215-12.799 27.492 27.492 0 0 0-.035-19.13 2.715 2.715 0 0 0 1.8 1.06l15.26 2.22a2.778 2.778 0 0 1 1.54 4.74zm141.41-65.945a2.754 2.754 0 0 0-.8 2.46l2.6 15.2a2.773 2.773 0 0 1-4.02 2.93l-13.66-7.18a2.805 2.805 0 0 0-1.86-.26 27.18 27.18 0 0 0 10.215-12.8 27.492 27.492 0 0 0-.035-19.13 2.715 2.715 0 0 0 1.8 1.06l15.26 2.22a2.778 2.778 0 0 1 1.54 4.74zm-281.918-.002a2.754 2.754 0 0 0-.8 2.46l2.6 15.2a2.773 2.773 0 0 1-4.02 2.93l-13.66-7.18a2.805 2.805 0 0 0-1.86-.26 27.18 27.18 0 0 0 10.215-12.8 27.492 27.492 0 0 0-.035-19.13 2.715 2.715 0 0 0 1.8 1.06l15.26 2.22a2.778 2.778 0 0 1 1.54 4.74z"/><path fill="#fed402" d="m117.982 354.16 6.827 13.834a2.776 2.776 0 0 0 2.09 1.518l15.266 2.219a2.776 2.776 0 0 1 1.538 4.735l-11.046 10.768a2.776 2.776 0 0 0-.798 2.457l2.607 15.204a2.776 2.776 0 0 1-4.028 2.927l-13.654-7.179a2.776 2.776 0 0 0-2.584 0l-13.654 7.179a2.776 2.776 0 0 1-4.028-2.927l2.608-15.204a2.776 2.776 0 0 0-.799-2.457l-11.046-10.768a2.776 2.776 0 0 1 1.539-4.735l15.265-2.219a2.776 2.776 0 0 0 2.09-1.518l6.827-13.833a2.776 2.776 0 0 1 4.98 0Z"/><circle cx="438.799" cy="317.759" r="7.5" fill="#00c27a"/><circle cx="336.052" cy="426.059" r="7.5" fill="#00c27a"/><circle cx="179.489" cy="426.059" r="7.5" fill="#00c27a"/><circle cx="78.94" cy="317.759" r="7.5" fill="#00c27a"/></svg>